<svg id="svg" version="1.1" xmlns="http://www.w3.org/2000/svg" xmlns:xlink="http://www.w3.org/1999/xlink" width="400" height="308.695652173913" viewBox="0, 0, 400,308.695652173913"><g id="svgg"><path id="path0" d="M191.197 0.341 C 191.197 0.529,190.810 1.259,190.337 1.963 C 189.864 2.667,188.811 4.355,187.996 5.714 C 187.181 7.073,185.976 9.019,185.318 10.039 C 184.660 11.058,183.692 12.587,183.166 13.436 C 182.640 14.286,181.668 15.815,181.004 16.834 C 179.358 19.362,177.848 21.813,177.327 22.805 C 177.088 23.258,176.810 23.699,176.709 23.784 C 176.371 24.068,175.135 25.918,175.135 26.141 C 175.135 26.262,174.904 26.616,174.622 26.928 C 174.082 27.524,173.503 28.457,173.018 29.511 C 172.859 29.858,172.505 30.326,172.233 30.552 C 171.960 30.779,171.737 31.110,171.737 31.289 C 171.737 31.468,171.224 32.390,170.596 33.336 C 169.504 34.984,169.115 35.590,166.219 40.154 C 165.518 41.259,164.805 42.330,164.635 42.535 C 164.464 42.740,164.324 43.028,164.324 43.174 C 164.324 43.321,163.768 44.186,163.089 45.097 C 162.409 46.007,161.853 46.847,161.853 46.963 C 161.853 47.078,160.880 48.651,159.691 50.459 C 158.502 52.266,157.529 53.872,157.529 54.028 C 157.529 54.184,157.425 54.358,157.297 54.414 C 157.038 54.529,155.367 57.031,155.367 57.304 C 155.367 57.399,155.220 57.646,155.039 57.851 C 154.859 58.056,154.269 58.956,153.727 59.850 C 153.185 60.745,151.479 63.455,149.936 65.873 C 145.861 72.260,145.825 72.561,148.687 76.348 C 149.242 77.082,149.784 77.921,149.891 78.211 C 150.082 78.728,152.858 83.052,155.652 87.188 C 156.430 88.338,157.201 89.519,157.366 89.813 C 157.531 90.107,158.169 91.112,158.783 92.046 C 159.397 92.981,159.993 93.954,160.107 94.208 C 160.222 94.463,160.588 95.089,160.921 95.598 C 161.253 96.108,161.742 96.907,162.006 97.375 C 162.887 98.931,164.631 98.214,165.929 95.763 C 166.151 95.343,167.027 93.925,167.876 92.611 C 168.726 91.297,170.394 88.678,171.583 86.792 C 172.772 84.905,174.544 82.130,175.521 80.624 C 176.498 79.118,177.297 77.736,177.297 77.553 C 177.297 77.370,177.402 77.217,177.529 77.214 C 177.656 77.211,178.178 76.512,178.687 75.660 C 179.800 73.801,181.213 71.553,184.501 66.409 C 187.281 62.060,188.638 59.919,190.409 57.086 C 191.079 56.013,192.479 53.815,193.519 52.201 C 194.560 50.587,195.876 48.537,196.445 47.645 C 197.846 45.447,199.521 45.921,200.929 48.914 C 201.100 49.278,201.653 50.201,202.158 50.965 C 202.663 51.730,203.218 52.590,203.391 52.876 C 204.784 55.177,208.260 60.813,211.232 65.590 C 211.850 66.583,212.621 67.834,212.946 68.369 C 213.271 68.905,214.185 70.317,214.976 71.506 C 215.767 72.695,216.511 73.876,216.628 74.131 C 216.745 74.386,217.113 75.012,217.446 75.521 C 217.778 76.031,218.278 76.852,218.556 77.345 C 218.834 77.838,219.464 78.797,219.955 79.476 C 220.447 80.155,220.849 80.837,220.849 80.992 C 220.849 81.146,221.336 81.910,221.931 82.688 C 222.525 83.467,223.012 84.219,223.012 84.360 C 223.012 84.500,223.684 85.627,224.505 86.863 C 226.094 89.255,227.907 92.120,228.417 93.045 C 228.928 93.971,232.607 99.861,233.236 100.760 C 233.559 101.220,233.822 101.671,233.822 101.763 C 233.822 101.854,234.286 102.590,234.854 103.397 C 235.421 104.204,236.547 105.977,237.356 107.336 C 238.165 108.695,239.506 110.849,240.336 112.124 C 241.166 113.398,242.061 114.857,242.325 115.367 C 243.096 116.854,244.082 118.457,245.405 120.374 C 246.085 121.357,246.780 122.399,246.950 122.688 C 248.219 124.850,250.114 127.916,250.782 128.889 C 251.222 129.531,251.722 130.299,251.892 130.594 C 252.062 130.890,253.313 132.903,254.672 135.068 C 256.031 137.232,257.369 139.384,257.644 139.849 C 257.920 140.314,258.719 141.598,259.420 142.703 C 260.121 143.807,261.118 145.405,261.635 146.255 C 262.153 147.104,262.744 148.072,262.948 148.406 C 263.153 148.740,263.962 149.991,264.745 151.186 C 265.529 152.381,266.563 154.054,267.045 154.903 C 267.526 155.753,268.240 156.878,268.632 157.404 C 269.023 157.929,269.344 158.479,269.344 158.626 C 269.344 158.772,269.865 159.663,270.502 160.606 C 271.139 161.549,271.829 162.598,272.036 162.936 C 273.512 165.354,274.475 166.885,275.532 168.494 C 276.202 169.514,276.895 170.680,277.072 171.087 C 277.248 171.494,277.777 172.328,278.247 172.940 C 278.716 173.553,279.269 174.402,279.475 174.826 C 279.681 175.251,280.404 176.432,281.081 177.452 C 281.758 178.471,282.404 179.514,282.516 179.768 C 282.628 180.023,283.185 180.892,283.754 181.700 C 284.322 182.507,284.788 183.239,284.788 183.326 C 284.788 183.484,286.155 185.659,288.087 188.574 C 288.651 189.425,289.112 190.226,289.112 190.353 C 289.112 190.481,289.573 191.244,290.137 192.049 C 290.702 192.855,291.750 194.486,292.467 195.676 C 295.498 200.702,296.042 201.565,296.428 201.953 C 296.651 202.177,296.834 202.498,296.834 202.666 C 296.834 202.834,297.320 203.609,297.915 204.387 C 298.510 205.166,298.996 205.924,298.996 206.071 C 298.996 206.218,299.456 206.997,300.019 207.802 C 300.582 208.608,301.137 209.475,301.254 209.730 C 301.370 209.985,302.007 211.027,302.668 212.046 C 303.329 213.066,304.536 215.012,305.349 216.371 C 306.162 217.730,307.197 219.328,307.648 219.923 C 308.099 220.517,308.554 221.239,308.658 221.527 C 308.762 221.814,309.550 223.110,310.408 224.406 C 311.267 225.703,311.969 226.882,311.969 227.026 C 311.969 227.170,312.428 227.890,312.988 228.625 C 313.549 229.360,314.101 230.170,314.217 230.425 C 314.332 230.680,315.053 231.861,315.821 233.050 C 316.588 234.239,317.851 236.255,318.627 237.529 C 319.403 238.803,320.778 241.027,321.682 242.471 C 322.586 243.915,323.996 246.208,324.815 247.568 C 325.635 248.927,326.763 250.681,327.322 251.465 C 327.882 252.250,328.340 252.998,328.340 253.127 C 328.340 253.257,328.826 254.040,329.421 254.867 C 330.015 255.695,330.502 256.428,330.502 256.497 C 330.502 256.565,331.097 257.572,331.824 258.735 C 334.916 263.681,335.663 264.870,336.834 266.717 C 337.514 267.789,338.764 269.807,339.614 271.202 C 341.704 274.634,343.371 277.259,344.482 278.870 L 345.408 280.212 344.750 280.870 C 344.103 281.517,343.935 281.527,334.777 281.431 C 324.055 281.319,324.835 281.534,322.853 278.147 C 322.058 276.788,321.299 275.537,321.166 275.367 C 321.033 275.197,320.351 274.154,319.650 273.050 C 318.949 271.946,317.930 270.347,317.384 269.498 C 316.224 267.692,314.419 264.808,313.977 264.054 C 313.168 262.676,311.426 259.912,309.326 256.680 C 308.058 254.726,306.879 252.795,306.705 252.388 C 306.532 251.981,305.978 251.127,305.473 250.490 C 304.969 249.853,304.556 249.227,304.556 249.099 C 304.556 248.972,304.094 248.158,303.530 247.291 C 302.965 246.424,301.930 244.811,301.229 243.707 C 300.528 242.602,299.838 241.560,299.694 241.390 C 299.550 241.220,298.952 240.270,298.365 239.279 C 296.958 236.903,296.823 236.686,295.753 235.058 C 294.705 233.464,294.575 233.253,293.179 230.868 C 292.613 229.900,292.022 228.953,291.865 228.763 C 291.708 228.573,291.007 227.514,290.306 226.409 C 289.606 225.305,288.564 223.696,287.991 222.835 C 287.418 221.973,286.950 221.172,286.950 221.055 C 286.950 220.939,286.463 220.151,285.869 219.305 C 285.274 218.459,284.788 217.698,284.788 217.614 C 284.788 217.529,283.867 216.034,282.742 214.290 C 281.617 212.546,280.390 210.633,280.015 210.039 C 279.640 209.444,278.928 208.332,278.433 207.568 C 277.938 206.803,277.355 205.830,277.138 205.405 C 276.921 204.981,276.195 203.799,275.526 202.780 C 274.856 201.761,273.880 200.232,273.356 199.382 C 272.832 198.533,271.861 197.004,271.197 195.985 C 270.099 194.299,268.676 192.024,267.718 190.425 C 267.320 189.761,266.115 187.833,264.244 184.865 C 263.601 183.846,262.331 181.890,261.422 180.519 C 260.512 179.148,259.768 177.932,259.768 177.817 C 259.768 177.702,259.282 176.930,258.687 176.103 C 258.093 175.275,257.606 174.492,257.606 174.363 C 257.606 174.234,257.120 173.451,256.525 172.623 C 255.931 171.795,255.444 171.035,255.444 170.933 C 255.444 170.831,254.522 169.337,253.394 167.613 C 252.267 165.889,251.039 163.992,250.666 163.398 C 250.294 162.803,249.588 161.691,249.097 160.927 C 248.607 160.162,247.993 159.169,247.732 158.719 C 247.028 157.503,245.372 154.837,244.018 152.741 C 243.359 151.722,242.238 149.915,241.526 148.726 C 240.814 147.537,239.780 145.869,239.228 145.019 C 238.676 144.170,237.653 142.571,236.955 141.467 C 236.257 140.363,235.542 139.251,235.367 138.996 C 234.549 137.809,230.704 131.686,230.518 131.274 C 230.403 131.019,229.848 130.152,229.286 129.347 C 228.723 128.542,228.263 127.810,228.263 127.720 C 228.263 127.631,227.794 126.830,227.221 125.941 C 226.649 125.052,225.242 122.865,224.096 121.081 C 222.949 119.297,221.750 117.461,221.430 117.001 C 221.111 116.541,220.849 116.071,220.849 115.957 C 220.849 115.843,220.395 115.107,219.840 114.323 C 219.285 113.538,218.659 112.548,218.448 112.124 C 218.238 111.699,217.517 110.517,216.847 109.498 C 215.780 107.877,214.251 105.447,213.282 103.835 C 213.112 103.552,212.452 102.542,211.815 101.590 C 211.178 100.638,210.656 99.754,210.656 99.626 C 210.656 99.499,210.239 98.867,209.730 98.224 C 209.220 97.580,208.803 96.974,208.803 96.877 C 208.803 96.730,207.163 94.071,206.014 92.355 C 205.844 92.100,205.131 90.988,204.431 89.884 C 203.731 88.780,202.795 87.335,202.351 86.673 C 201.908 86.011,201.409 85.246,201.244 84.974 C 198.336 80.178,197.745 79.678,196.544 81.004 C 195.940 81.670,193.359 85.957,193.359 86.293 C 193.359 86.382,192.963 87.053,192.480 87.784 C 191.996 88.514,191.271 89.737,190.868 90.502 C 190.465 91.266,189.977 92.100,189.783 92.355 C 189.590 92.610,188.906 93.792,188.264 94.981 C 187.622 96.170,186.456 98.227,185.672 99.552 C 184.888 100.877,183.888 102.614,183.450 103.413 C 183.012 104.211,181.448 106.937,179.975 109.469 C 178.502 112.001,177.297 114.158,177.297 114.262 C 177.297 114.366,176.957 114.952,176.541 115.564 C 175.061 117.742,175.583 120.009,178.443 123.828 C 179.002 124.575,179.459 125.314,179.459 125.471 C 179.459 125.629,179.857 126.338,180.342 127.049 C 180.828 127.759,181.560 128.965,181.970 129.730 C 182.380 130.494,183.547 132.487,184.562 134.157 C 185.578 135.828,186.805 137.913,187.290 138.790 C 187.774 139.668,188.365 140.606,188.602 140.874 C 188.840 141.142,189.035 141.471,189.035 141.604 C 189.035 141.738,189.674 142.809,190.456 143.985 C 192.588 147.192,193.318 146.721,196.768 139.919 C 197.953 137.582,199.794 137.274,200.802 139.243 C 201.037 139.702,201.648 140.710,202.159 141.482 C 202.671 142.255,203.228 143.123,203.398 143.411 C 204.014 144.455,211.067 155.562,212.084 157.088 C 212.658 157.950,213.127 158.751,213.127 158.867 C 213.127 158.984,213.614 159.772,214.208 160.618 C 214.803 161.464,215.290 162.251,215.290 162.366 C 215.290 162.482,215.520 162.832,215.803 163.144 C 216.085 163.456,216.467 163.981,216.652 164.312 C 216.837 164.642,217.614 165.914,218.378 167.137 C 219.143 168.360,220.116 169.947,220.541 170.662 C 220.965 171.378,221.842 172.781,222.488 173.781 C 225.274 178.088,225.671 178.717,226.300 179.818 C 226.664 180.456,227.255 181.350,227.612 181.805 C 227.970 182.260,228.263 182.751,228.263 182.896 C 228.263 183.042,228.749 183.798,229.344 184.577 C 229.938 185.356,230.425 186.174,230.425 186.395 C 230.425 186.616,230.632 186.969,230.886 187.180 C 231.140 187.390,231.800 188.323,232.353 189.252 C 232.906 190.181,233.498 191.174,233.668 191.460 C 233.838 191.745,235.421 194.270,237.187 197.070 C 238.952 199.871,240.878 202.927,241.467 203.861 C 242.055 204.795,243.668 207.326,245.052 209.484 C 246.436 211.643,248.124 214.318,248.803 215.429 C 250.077 217.512,253.031 222.155,254.570 224.494 C 255.051 225.225,255.444 225.886,255.444 225.965 C 255.444 226.043,255.931 226.799,256.525 227.645 C 257.120 228.491,257.606 229.303,257.606 229.450 C 257.606 229.598,258.093 230.355,258.687 231.134 C 259.282 231.913,259.772 232.662,259.777 232.800 C 259.786 233.057,261.850 236.285,262.693 237.360 C 262.953 237.692,263.166 238.084,263.166 238.232 C 263.166 238.380,264.105 239.916,265.254 241.644 C 266.402 243.373,267.508 245.066,267.711 245.405 C 269.442 248.293,271.201 251.093,272.757 253.436 C 273.772 254.965,274.771 256.564,274.978 256.988 C 275.185 257.413,275.438 257.830,275.541 257.915 C 275.644 258.000,276.301 259.042,277.002 260.232 C 277.702 261.421,279.179 263.784,280.285 265.483 C 282.036 268.172,282.965 269.647,284.566 272.278 C 284.773 272.618,285.394 273.556,285.946 274.364 C 286.498 275.171,286.950 275.925,286.950 276.040 C 286.950 276.154,287.419 276.953,287.992 277.815 C 288.565 278.677,289.600 280.286,290.292 281.390 C 290.984 282.494,291.670 283.537,291.815 283.707 C 291.960 283.876,292.489 284.745,292.989 285.637 C 293.490 286.528,294.004 287.258,294.131 287.258 C 294.259 287.259,294.363 287.425,294.363 287.628 C 294.363 288.000,295.729 290.150,296.448 290.910 C 296.660 291.135,296.834 291.449,296.834 291.608 C 296.834 291.768,297.320 292.590,297.915 293.436 C 298.510 294.282,298.996 295.038,298.996 295.116 C 298.996 295.260,299.959 296.765,302.127 300.010 C 302.783 300.992,303.320 301.854,303.320 301.925 C 303.320 302.205,305.156 304.753,305.735 305.277 C 306.932 306.360,309.905 306.428,352.216 306.341 C 393.649 306.255,393.808 306.252,394.437 305.623 C 395.290 304.770,394.951 303.887,391.969 299.195 C 390.695 297.190,389.387 295.109,389.063 294.570 C 388.739 294.031,387.702 292.409,386.758 290.965 C 385.814 289.521,384.829 287.967,384.567 287.512 C 383.316 285.329,381.259 281.994,380.219 280.463 C 379.585 279.529,378.131 277.236,376.989 275.367 C 375.846 273.498,374.472 271.274,373.936 270.425 C 373.400 269.575,372.795 268.602,372.591 268.263 C 371.564 266.548,370.194 264.367,369.099 262.703 C 368.429 261.683,367.710 260.502,367.502 260.077 C 367.294 259.653,366.668 258.694,366.110 257.948 C 365.553 257.201,365.097 256.463,365.097 256.308 C 365.097 256.152,364.610 255.388,364.015 254.609 C 363.421 253.830,362.934 253.081,362.934 252.944 C 362.934 252.807,362.552 252.097,362.085 251.367 C 361.618 250.636,361.097 249.815,360.927 249.541 C 360.757 249.268,360.391 248.712,360.115 248.306 C 359.838 247.900,358.672 246.039,357.525 244.170 C 356.377 242.301,354.989 240.077,354.441 239.228 C 353.893 238.378,352.556 236.257,351.471 234.513 C 350.386 232.770,348.774 230.198,347.889 228.799 C 347.004 227.400,346.103 225.907,345.887 225.483 C 345.670 225.058,345.060 224.085,344.531 223.320 C 344.002 222.556,343.479 221.722,343.368 221.467 C 343.258 221.212,342.628 220.170,341.967 219.151 C 341.307 218.131,340.179 216.324,339.461 215.135 C 338.743 213.946,337.699 212.278,337.141 211.429 C 335.864 209.484,332.312 203.772,331.864 202.944 C 331.680 202.601,331.297 202.066,331.015 201.754 C 330.733 201.442,330.502 201.091,330.502 200.975 C 330.502 200.858,329.990 199.966,329.365 198.991 C 326.914 195.173,326.227 194.080,325.434 192.741 C 324.982 191.977,323.861 190.170,322.943 188.726 C 321.492 186.442,320.723 185.206,319.005 182.394 C 318.797 182.054,318.137 181.011,317.537 180.075 C 316.938 179.140,316.286 178.097,316.088 177.759 C 315.890 177.420,314.639 175.408,313.308 173.288 C 311.977 171.168,310.749 169.199,310.579 168.913 C 309.967 167.883,308.206 165.054,306.856 162.934 C 306.098 161.745,304.682 159.452,303.708 157.838 C 302.735 156.224,301.276 153.941,300.467 152.764 C 299.658 151.587,298.996 150.486,298.996 150.317 C 298.996 150.148,298.765 149.755,298.483 149.443 C 297.911 148.811,297.340 147.874,296.828 146.724 C 296.640 146.303,296.379 145.886,296.247 145.798 C 296.116 145.709,295.610 144.942,295.123 144.093 C 294.636 143.243,294.148 142.479,294.038 142.394 C 293.928 142.309,293.657 141.892,293.437 141.467 C 293.217 141.042,292.153 139.338,291.074 137.679 C 289.995 136.021,289.112 134.587,289.112 134.493 C 289.112 134.399,288.778 133.879,288.371 133.338 C 287.963 132.798,287.355 131.869,287.019 131.274 C 286.684 130.680,285.840 129.290,285.145 128.185 C 284.450 127.081,283.455 125.483,282.934 124.633 C 281.766 122.728,281.684 122.597,279.305 118.853 C 278.243 117.182,277.375 115.707,277.375 115.575 C 277.375 115.442,276.929 114.728,276.384 113.987 C 275.839 113.246,275.179 112.251,274.917 111.776 C 274.344 110.739,272.842 108.320,271.200 105.792 C 270.538 104.772,269.335 102.826,268.527 101.467 C 267.718 100.108,266.973 98.927,266.871 98.842 C 266.769 98.757,266.356 98.131,265.954 97.452 C 265.552 96.772,264.100 94.434,262.727 92.256 C 261.355 90.078,260.093 88.057,259.923 87.765 C 259.213 86.544,257.458 83.773,256.641 82.582 C 256.158 81.879,255.621 80.976,255.446 80.575 C 255.271 80.174,254.581 79.012,253.911 77.992 C 253.241 76.973,252.263 75.444,251.737 74.595 C 251.212 73.745,250.236 72.216,249.569 71.197 C 248.903 70.178,248.142 68.927,247.879 68.417 C 247.616 67.907,246.852 66.656,246.182 65.637 C 245.513 64.618,244.537 63.089,244.015 62.239 C 243.493 61.390,242.531 59.861,241.876 58.842 C 241.222 57.822,239.927 55.737,238.998 54.208 C 238.070 52.680,236.092 49.483,234.603 47.104 C 231.852 42.713,231.378 41.966,229.384 38.887 C 228.767 37.935,228.263 37.052,228.263 36.924 C 228.263 36.796,227.866 36.185,227.382 35.566 C 226.897 34.947,226.307 34.069,226.069 33.615 C 225.562 32.647,224.091 30.247,222.410 27.645 C 221.751 26.625,220.748 25.038,220.181 24.117 C 219.614 23.196,218.873 21.996,218.533 21.451 C 218.193 20.906,217.429 19.666,216.834 18.697 C 215.621 16.719,215.559 16.620,212.943 12.434 C 211.907 10.777,210.682 8.795,210.222 8.031 C 209.762 7.266,208.844 5.807,208.181 4.788 C 207.519 3.768,206.659 2.274,206.270 1.467 L 205.563 0.000 198.380 0.000 C 193.342 0.000,191.197 0.102,191.197 0.341 M307.589 2.724 C 307.304 2.840,306.740 3.421,306.336 4.015 C 305.931 4.610,305.088 5.825,304.461 6.715 C 303.834 7.605,303.320 8.406,303.320 8.494 C 303.320 8.583,302.834 9.347,302.239 10.193 C 301.645 11.039,301.158 11.850,301.158 11.995 C 301.158 12.141,300.880 12.511,300.541 12.819 C 300.201 13.126,299.923 13.554,299.923 13.769 C 299.923 13.985,299.436 14.799,298.842 15.577 C 298.247 16.356,297.761 17.063,297.761 17.149 C 297.761 17.234,297.274 17.996,296.680 18.842 C 296.085 19.688,295.598 20.456,295.598 20.550 C 295.598 20.711,294.381 22.530,294.054 22.857 C 293.606 23.305,292.510 25.035,292.510 25.294 C 292.510 25.458,292.335 25.777,292.121 26.001 C 291.746 26.395,288.969 30.392,288.340 31.444 C 288.170 31.728,287.301 33.041,286.409 34.363 C 285.517 35.684,284.788 36.838,284.788 36.928 C 284.788 37.122,283.559 38.882,283.012 39.473 C 282.799 39.702,282.625 40.071,282.625 40.293 C 282.625 40.515,282.409 40.876,282.144 41.096 C 281.880 41.316,281.475 41.923,281.246 42.446 C 281.016 42.970,280.468 43.802,280.028 44.295 C 279.588 44.789,279.228 45.325,279.228 45.486 C 279.228 45.648,278.811 46.306,278.301 46.950 C 277.792 47.593,277.375 48.214,277.375 48.330 C 277.375 48.445,276.610 49.643,275.676 50.992 C 274.741 52.341,273.977 53.497,273.977 53.562 C 273.977 53.627,273.186 54.841,272.219 56.261 C 271.253 57.680,270.008 59.537,269.454 60.386 C 268.900 61.236,268.331 62.069,268.191 62.239 C 268.051 62.409,267.534 63.243,267.043 64.093 C 266.552 64.942,265.688 66.248,265.122 66.994 C 264.556 67.741,264.093 68.496,264.093 68.673 C 264.093 68.850,263.837 69.282,263.525 69.633 C 262.515 70.766,262.092 72.212,262.588 72.826 C 262.825 73.119,263.283 73.846,263.607 74.440 C 263.931 75.035,264.486 75.887,264.839 76.335 C 265.193 76.782,266.039 78.065,266.718 79.185 C 267.398 80.306,268.058 81.225,268.185 81.229 C 268.313 81.232,268.417 81.373,268.417 81.541 C 268.417 81.709,268.973 82.647,269.652 83.626 C 270.331 84.605,270.887 85.558,270.888 85.743 C 270.888 85.929,271.243 86.485,271.677 86.979 C 272.110 87.473,272.670 88.293,272.920 88.803 C 273.597 90.180,274.081 90.957,274.597 91.493 C 274.850 91.756,275.437 92.579,275.901 93.322 C 276.365 94.064,276.921 94.945,277.137 95.278 C 277.353 95.611,277.843 96.410,278.228 97.054 C 279.148 98.595,279.802 98.520,280.907 96.745 C 281.405 95.945,282.447 94.317,283.221 93.127 C 283.995 91.938,284.769 90.735,284.940 90.454 C 285.111 90.173,286.084 88.714,287.101 87.211 C 288.119 85.708,289.042 84.265,289.152 84.005 C 289.262 83.744,289.576 83.345,289.850 83.117 C 290.123 82.890,290.347 82.513,290.347 82.279 C 290.347 82.045,290.461 81.853,290.599 81.853 C 290.738 81.853,291.084 81.402,291.369 80.849 C 292.004 79.621,292.518 78.829,293.127 78.141 C 293.382 77.854,294.203 76.621,294.950 75.403 C 297.068 71.952,298.917 69.081,299.362 68.551 C 299.586 68.286,300.046 67.528,300.386 66.867 C 300.726 66.206,301.293 65.312,301.646 64.879 C 302.000 64.447,302.383 63.884,302.499 63.629 C 302.746 63.085,302.513 63.443,308.384 54.628 C 310.915 50.830,313.477 46.958,314.080 46.023 C 314.682 45.089,315.530 43.799,315.965 43.157 C 316.401 42.515,316.901 41.730,317.078 41.414 C 317.254 41.097,317.567 40.635,317.773 40.387 C 317.979 40.138,318.509 39.255,318.951 38.423 C 319.393 37.592,319.860 36.842,319.989 36.757 C 320.118 36.672,321.106 35.212,322.184 33.514 C 323.263 31.815,324.689 29.695,325.353 28.803 L 326.561 27.181 337.566 27.186 C 343.619 27.189,348.752 27.306,348.973 27.446 C 349.496 27.777,349.089 28.741,347.195 31.660 C 346.423 32.849,345.722 33.961,345.637 34.131 C 345.552 34.301,344.320 36.175,342.899 38.296 C 341.478 40.417,340.191 42.433,340.039 42.775 C 339.886 43.117,339.209 44.232,338.534 45.251 C 337.859 46.270,336.882 47.799,336.364 48.649 C 335.846 49.498,334.811 51.027,334.064 52.046 C 333.317 53.066,332.696 54.024,332.685 54.177 C 332.673 54.329,332.178 55.186,331.583 56.082 C 330.988 56.978,330.502 57.840,330.502 57.997 C 330.502 58.154,330.224 58.534,329.884 58.842 C 329.544 59.149,329.266 59.510,329.266 59.643 C 329.266 59.776,328.352 61.233,327.235 62.881 C 326.117 64.529,325.089 66.177,324.950 66.542 C 324.811 66.908,324.475 67.392,324.202 67.618 C 323.930 67.844,323.707 68.137,323.707 68.269 C 323.707 68.527,320.948 72.908,318.919 75.875 C 318.239 76.868,317.510 78.029,317.299 78.454 C 317.088 78.880,316.359 80.062,315.679 81.081 C 315.000 82.100,314.347 83.143,314.228 83.398 C 314.109 83.653,313.274 84.928,312.373 86.232 C 311.471 87.536,310.734 88.752,310.734 88.935 C 310.734 89.117,310.620 89.266,310.482 89.266 C 310.343 89.266,309.997 89.718,309.712 90.270 C 309.426 90.822,309.053 91.483,308.883 91.737 C 308.712 91.992,307.837 93.382,306.939 94.826 C 306.041 96.270,304.626 98.494,303.795 99.768 C 302.964 101.042,301.941 102.641,301.521 103.320 C 301.102 104.000,300.362 105.151,299.877 105.878 C 299.393 106.605,298.996 107.263,298.996 107.341 C 298.996 107.419,298.232 108.586,297.297 109.934 C 296.363 111.283,295.598 112.468,295.598 112.567 C 295.598 112.759,293.624 115.666,292.963 116.448 C 292.033 117.548,291.901 119.155,292.650 120.259 C 293.300 121.217,293.937 122.252,297.051 127.413 C 297.666 128.432,298.340 129.369,298.548 129.494 C 298.757 129.619,299.015 130.071,299.122 130.498 C 299.229 130.925,299.453 131.274,299.620 131.274 C 299.786 131.274,299.923 131.412,299.923 131.580 C 299.923 131.748,300.479 132.686,301.158 133.665 C 301.837 134.643,302.393 135.607,302.393 135.806 C 302.394 136.006,302.880 136.806,303.475 137.585 C 304.069 138.364,304.556 139.058,304.556 139.127 C 304.556 139.196,305.320 140.388,306.255 141.776 C 307.189 143.164,307.954 144.491,307.954 144.726 C 307.954 145.478,309.261 145.972,309.639 145.362 C 309.948 144.865,313.091 140.068,314.199 138.404 C 314.491 137.965,314.935 137.154,315.187 136.602 C 315.438 136.050,315.790 135.598,315.969 135.598 C 316.147 135.598,316.293 135.418,316.293 135.197 C 316.293 134.976,317.058 133.641,317.992 132.228 C 318.927 130.816,319.691 129.601,319.691 129.528 C 319.691 129.372,320.999 127.483,321.262 127.259 C 321.362 127.174,321.842 126.409,322.329 125.560 C 322.815 124.710,323.316 123.943,323.441 123.855 C 323.566 123.766,323.815 123.349,323.994 122.928 C 324.173 122.507,325.156 120.911,326.179 119.382 C 327.201 117.853,328.140 116.394,328.266 116.139 C 328.391 115.884,328.900 115.050,329.396 114.286 C 329.892 113.521,330.601 112.409,330.972 111.815 C 331.897 110.329,334.957 105.600,336.577 103.150 C 337.313 102.037,337.915 100.977,337.915 100.794 C 337.915 100.611,338.138 100.277,338.411 100.051 C 338.683 99.824,339.037 99.356,339.196 99.009 C 339.606 98.117,340.181 97.148,340.795 96.315 C 341.626 95.187,343.475 92.317,343.475 92.155 C 343.475 92.075,343.961 91.372,344.556 90.593 C 345.151 89.815,345.637 89.011,345.637 88.807 C 345.637 88.602,345.915 88.184,346.255 87.876 C 346.595 87.569,346.873 87.073,346.873 86.773 C 346.873 86.474,346.977 86.183,347.104 86.126 C 347.412 85.989,350.967 80.576,353.262 76.750 C 354.589 74.537,356.052 72.278,356.758 71.351 C 357.210 70.757,357.675 70.062,357.790 69.807 C 357.905 69.552,358.241 68.976,358.536 68.527 C 358.832 68.079,359.553 66.897,360.139 65.902 C 360.726 64.907,361.386 63.909,361.607 63.685 C 361.827 63.460,362.008 63.146,362.008 62.986 C 362.008 62.827,362.518 61.968,363.141 61.078 C 365.076 58.315,365.303 57.978,366.773 55.678 C 367.560 54.448,368.303 53.193,368.426 52.889 C 368.548 52.584,369.483 51.112,370.502 49.616 C 371.521 48.120,372.494 46.669,372.664 46.392 C 372.834 46.114,373.604 44.909,374.374 43.715 C 375.145 42.521,375.945 41.197,376.152 40.772 C 376.586 39.883,378.257 37.304,380.154 34.596 C 380.876 33.565,381.467 32.620,381.467 32.496 C 381.467 32.371,381.954 31.547,382.548 30.664 C 383.143 29.782,383.629 28.936,383.629 28.786 C 383.629 28.636,383.907 28.261,384.247 27.954 C 384.587 27.646,384.865 27.276,384.865 27.130 C 384.865 26.893,386.593 24.273,387.455 23.203 C 387.822 22.748,389.536 19.816,390.184 18.533 C 390.399 18.108,390.685 17.622,390.820 17.452 C 391.646 16.413,395.551 10.213,398.357 5.483 C 398.836 4.676,399.402 4.016,399.614 4.016 C 399.826 4.016,400.000 3.668,400.000 3.243 L 400.000 2.471 354.054 2.493 C 328.784 2.505,307.875 2.609,307.589 2.724 M1.776 3.114 C 1.008 3.561,1.105 4.358,2.097 5.745 C 2.571 6.408,3.370 7.637,3.873 8.476 C 4.801 10.025,5.289 10.798,6.950 13.351 C 7.459 14.135,8.432 15.688,9.112 16.802 C 9.792 17.916,10.452 18.831,10.579 18.835 C 10.707 18.839,10.811 19.040,10.811 19.281 C 10.811 19.523,11.297 20.358,11.892 21.137 C 12.486 21.916,12.973 22.673,12.973 22.818 C 12.973 22.964,13.266 23.455,13.623 23.909 C 13.981 24.364,14.571 25.272,14.936 25.928 C 15.631 27.178,20.043 34.265,21.773 36.911 C 22.329 37.761,23.355 39.429,24.055 40.618 C 24.754 41.807,25.570 43.106,25.868 43.504 C 26.510 44.364,27.709 46.297,28.005 46.950 C 28.120 47.205,28.747 48.222,29.397 49.211 C 30.047 50.200,30.579 51.070,30.579 51.145 C 30.579 51.219,31.066 51.973,31.660 52.819 C 32.255 53.664,32.741 54.424,32.741 54.507 C 32.741 54.589,33.645 56.054,34.749 57.761 C 35.853 59.468,36.757 60.983,36.757 61.128 C 36.757 61.273,36.973 61.571,37.238 61.791 C 37.503 62.011,37.917 62.618,38.158 63.141 C 38.400 63.665,39.852 66.039,41.386 68.417 C 42.919 70.795,44.270 72.950,44.386 73.205 C 44.650 73.780,46.833 77.250,47.227 77.721 C 47.387 77.911,47.954 78.814,48.487 79.728 C 49.021 80.642,50.003 82.224,50.671 83.243 C 51.339 84.263,52.034 85.441,52.217 85.862 C 52.399 86.284,52.644 86.701,52.761 86.789 C 53.154 87.087,54.363 88.930,54.363 89.232 C 54.363 89.396,54.546 89.715,54.769 89.939 C 54.993 90.164,55.577 91.042,56.067 91.892 C 56.558 92.741,57.044 93.506,57.148 93.591 C 57.253 93.676,57.815 94.560,58.399 95.556 C 59.724 97.819,60.114 98.450,63.166 103.268 C 64.525 105.414,65.776 107.418,65.946 107.722 C 66.258 108.280,70.245 114.654,72.325 117.920 C 72.945 118.894,74.171 120.873,75.049 122.317 C 75.927 123.761,77.185 125.776,77.845 126.795 C 78.506 127.815,79.760 129.830,80.632 131.274 C 81.504 132.718,82.974 135.081,83.897 136.525 C 84.820 137.969,85.702 139.450,85.857 139.816 C 86.012 140.181,86.296 140.577,86.486 140.695 C 86.677 140.813,86.963 141.209,87.120 141.574 C 87.278 141.940,88.525 143.977,89.890 146.100 C 91.256 148.224,93.211 151.351,94.234 153.050 C 95.258 154.749,96.643 156.973,97.312 157.992 C 97.981 159.012,98.623 160.054,98.737 160.309 C 98.852 160.564,99.372 161.398,99.893 162.162 C 100.414 162.927,101.051 163.929,101.308 164.389 C 101.743 165.167,103.327 167.756,104.402 169.443 C 104.656 169.843,105.754 171.600,106.841 173.348 C 107.928 175.095,109.179 177.071,109.621 177.738 C 110.063 178.405,110.821 179.656,111.305 180.518 C 111.789 181.380,112.380 182.304,112.618 182.573 C 112.856 182.841,113.050 183.147,113.050 183.252 C 113.050 183.442,113.872 184.739,116.181 188.195 C 116.838 189.177,117.375 190.052,117.375 190.138 C 117.375 190.294,117.595 190.636,119.477 193.402 C 120.014 194.190,120.596 195.163,120.770 195.564 C 120.945 195.965,121.636 197.127,122.305 198.147 C 122.975 199.166,123.953 200.695,124.479 201.544 C 125.004 202.394,125.982 203.923,126.652 204.942 C 127.322 205.961,128.015 207.128,128.191 207.535 C 128.368 207.942,128.921 208.790,129.421 209.421 C 129.920 210.051,130.474 210.900,130.652 211.307 C 130.829 211.714,131.216 212.414,131.510 212.862 C 131.805 213.311,132.533 214.473,133.127 215.444 C 133.722 216.415,134.417 217.527,134.672 217.915 C 135.665 219.427,141.731 229.134,142.243 230.031 C 142.415 230.333,142.780 230.927,143.054 231.351 C 143.327 231.776,144.485 233.569,145.626 235.336 C 146.766 237.102,147.780 238.770,147.878 239.042 C 147.976 239.314,148.425 240.023,148.875 240.618 C 149.325 241.212,150.352 242.811,151.158 244.170 C 151.963 245.529,153.163 247.475,153.825 248.494 C 154.950 250.226,156.450 252.627,157.299 254.054 C 157.501 254.394,158.169 255.436,158.783 256.371 C 159.397 257.305,159.993 258.278,160.107 258.533 C 160.222 258.788,160.557 259.372,160.853 259.831 C 161.148 260.290,161.931 261.541,162.593 262.611 C 163.254 263.681,164.296 265.320,164.909 266.255 C 165.521 267.189,166.196 268.266,166.409 268.649 C 166.621 269.031,166.969 269.658,167.181 270.043 C 167.394 270.428,167.864 271.157,168.226 271.665 C 168.588 272.172,169.214 273.146,169.616 273.830 C 170.903 276.018,172.376 278.404,173.614 280.309 C 174.277 281.328,175.451 283.205,176.223 284.479 C 178.323 287.942,181.859 293.545,182.181 293.918 C 182.336 294.098,182.809 294.863,183.231 295.617 C 183.654 296.371,184.646 297.986,185.436 299.205 C 186.226 300.424,186.873 301.513,186.873 301.627 C 186.873 301.740,187.398 302.619,188.039 303.580 C 188.681 304.542,189.375 305.606,189.581 305.946 C 189.786 306.286,190.269 307.084,190.653 307.720 L 191.351 308.876 198.378 308.878 C 203.576 308.880,205.405 308.785,205.405 308.516 C 205.405 308.315,206.148 307.029,207.056 305.658 C 207.964 304.288,209.528 301.847,210.531 300.234 C 211.534 298.621,212.772 296.645,213.282 295.842 C 213.792 295.040,214.754 293.510,215.420 292.442 C 216.087 291.375,217.524 289.126,218.614 287.444 C 219.704 285.762,220.677 284.164,220.777 283.892 C 220.877 283.620,221.046 283.328,221.152 283.243 C 221.258 283.158,221.671 282.533,222.068 281.853 C 222.466 281.174,223.515 279.506,224.400 278.147 C 225.285 276.788,226.516 274.897,227.136 273.945 C 227.756 272.993,228.263 272.123,228.263 272.011 C 228.263 271.900,228.749 271.116,229.344 270.270 C 229.938 269.424,230.425 268.656,230.425 268.562 C 230.425 268.469,230.687 268.015,231.008 267.555 C 231.329 267.095,232.074 265.954,232.665 265.019 C 233.255 264.085,234.632 261.931,235.724 260.232 C 236.816 258.533,238.088 256.517,238.551 255.753 C 239.014 254.988,239.966 253.459,240.667 252.355 C 241.367 251.251,242.097 250.069,242.287 249.730 C 242.592 249.186,244.134 246.776,246.339 243.398 C 249.896 237.949,250.401 236.615,249.529 234.960 C 249.174 234.287,246.830 230.633,244.583 227.249 C 243.931 226.267,243.398 225.397,243.398 225.316 C 243.398 225.235,242.659 224.093,241.757 222.778 C 240.854 221.462,240.015 220.178,239.893 219.923 C 239.771 219.668,239.120 218.625,238.446 217.606 C 237.773 216.587,236.807 215.051,236.300 214.193 C 235.793 213.336,234.876 212.047,234.262 211.330 L 233.145 210.025 231.984 211.222 C 231.345 211.881,230.499 213.066,230.104 213.857 C 229.709 214.648,229.133 215.524,228.824 215.804 C 228.515 216.083,228.263 216.421,228.263 216.554 C 228.263 216.688,227.149 218.508,225.787 220.599 C 224.426 222.691,223.176 224.722,223.009 225.113 C 222.842 225.505,222.218 226.463,221.623 227.243 C 221.028 228.022,220.541 228.777,220.541 228.921 C 220.541 229.064,219.618 230.607,218.491 232.351 C 217.363 234.095,215.958 236.286,215.367 237.220 C 214.777 238.154,214.031 239.296,213.711 239.756 C 213.390 240.216,213.127 240.681,213.127 240.788 C 213.127 240.895,212.602 241.769,211.961 242.731 C 211.319 243.692,210.624 244.757,210.416 245.097 C 210.209 245.436,209.614 246.409,209.094 247.259 C 208.574 248.108,207.603 249.637,206.936 250.656 C 205.438 252.946,203.931 255.409,203.001 257.087 C 202.613 257.788,202.051 258.643,201.751 258.987 C 201.452 259.332,201.031 259.961,200.815 260.386 C 198.700 264.543,197.421 263.888,193.431 256.605 C 193.046 255.902,192.511 255.084,192.244 254.789 C 191.976 254.493,191.527 253.830,191.246 253.316 C 190.696 252.311,189.666 250.644,187.027 246.486 C 186.110 245.042,184.915 243.097,184.371 242.162 C 183.827 241.228,183.021 239.980,182.579 239.388 C 181.729 238.250,178.170 232.452,177.361 230.888 C 177.098 230.378,176.799 229.892,176.697 229.807 C 176.471 229.620,175.482 228.107,174.835 226.962 C 174.302 226.018,172.440 222.997,171.737 221.937 C 171.483 221.553,170.741 220.352,170.090 219.268 C 169.439 218.184,168.367 216.463,167.707 215.444 C 167.047 214.425,165.795 212.409,164.924 210.965 C 164.053 209.521,162.658 207.297,161.823 206.023 C 160.989 204.749,160.215 203.498,160.103 203.243 C 159.991 202.988,159.382 202.015,158.749 201.081 C 157.370 199.045,155.567 196.164,155.269 195.521 C 155.151 195.266,154.500 194.224,153.822 193.205 C 153.145 192.185,152.419 191.004,152.209 190.579 C 151.999 190.154,151.743 189.737,151.640 189.653 C 151.537 189.568,151.057 188.803,150.573 187.954 C 150.089 187.104,149.325 185.923,148.875 185.328 C 148.425 184.734,147.971 184.012,147.867 183.724 C 147.763 183.437,146.975 182.141,146.117 180.845 C 145.258 179.548,144.556 178.427,144.556 178.353 C 144.556 178.278,144.096 177.559,143.533 176.754 C 142.970 175.948,142.418 175.081,142.305 174.826 C 142.192 174.571,141.472 173.390,140.705 172.201 C 139.937 171.012,138.675 168.996,137.900 167.722 C 137.125 166.448,135.871 164.432,135.112 163.243 C 134.354 162.054,133.178 160.178,132.498 159.073 C 130.636 156.046,130.583 155.961,129.412 154.133 C 128.813 153.198,128.157 152.154,127.955 151.815 C 127.024 150.248,125.580 147.948,124.466 146.255 C 123.796 145.236,123.079 144.054,122.873 143.629 C 122.667 143.205,122.138 142.371,121.699 141.776 C 121.259 141.181,120.727 140.347,120.516 139.923 C 120.306 139.498,119.587 138.317,118.920 137.297 C 117.795 135.580,116.095 132.865,115.367 131.620 C 115.065 131.105,111.889 126.059,109.679 122.583 C 109.070 121.626,107.876 119.699,107.027 118.301 C 105.150 115.213,103.435 112.494,102.045 110.402 C 101.472 109.540,101.004 108.726,101.004 108.593 C 101.004 108.460,100.607 107.845,100.123 107.226 C 99.639 106.607,99.048 105.724,98.810 105.264 C 98.248 104.174,95.948 100.343,94.676 98.378 C 92.306 94.715,89.266 89.847,89.266 89.714 C 89.266 89.634,88.780 88.877,88.185 88.031 C 87.591 87.185,87.104 86.416,87.104 86.323 C 87.104 86.229,86.851 85.776,86.540 85.316 C 86.230 84.855,85.555 83.853,85.041 83.089 C 84.526 82.324,83.874 81.212,83.593 80.618 C 83.311 80.023,82.800 79.189,82.457 78.764 C 82.113 78.340,81.204 76.950,80.436 75.676 C 79.668 74.402,78.492 72.525,77.823 71.506 C 77.154 70.486,76.515 69.444,76.403 69.189 C 76.291 68.934,75.766 68.100,75.237 67.336 C 74.708 66.571,74.103 65.598,73.892 65.174 C 73.682 64.749,72.989 63.602,72.353 62.624 C 71.717 61.647,70.102 59.076,68.764 56.910 C 67.425 54.745,65.884 52.278,65.339 51.429 C 62.141 46.450,59.923 42.886,59.923 42.727 C 59.923 42.627,59.436 41.868,58.842 41.040 C 58.247 40.212,57.761 39.459,57.761 39.365 C 57.761 39.272,56.996 38.046,56.062 36.642 C 55.127 35.238,54.363 33.999,54.363 33.889 C 54.363 33.779,53.807 32.829,53.127 31.777 C 52.448 30.726,51.894 29.574,51.897 29.219 C 51.908 27.645,51.871 27.651,61.230 27.550 C 72.346 27.430,70.983 26.687,76.911 36.093 C 80.540 41.851,82.078 44.326,83.753 47.104 C 84.470 48.293,85.496 49.892,86.034 50.656 C 86.571 51.421,87.106 52.255,87.224 52.510 C 87.510 53.131,87.971 53.883,89.305 55.907 C 89.920 56.842,91.299 58.996,92.369 60.695 C 93.438 62.394,95.054 64.923,95.960 66.316 C 96.865 67.708,97.606 68.931,97.606 69.032 C 97.606 69.134,98.333 70.288,99.220 71.597 C 100.108 72.906,101.047 74.345,101.305 74.795 C 102.011 76.020,103.669 78.686,105.023 80.772 C 106.076 82.394,107.222 84.224,108.504 86.332 C 108.711 86.672,109.332 87.610,109.884 88.418 C 110.436 89.225,110.888 90.014,110.888 90.170 C 110.888 90.327,111.375 91.092,111.969 91.871 C 112.564 92.650,113.050 93.357,113.050 93.442 C 113.050 93.527,113.796 94.742,114.708 96.142 C 117.228 100.011,118.610 102.233,118.610 102.418 C 118.610 102.510,119.097 103.222,119.691 104.001 C 120.286 104.780,120.772 105.542,120.772 105.694 C 120.772 105.846,121.036 106.348,121.359 106.808 C 121.681 107.268,122.601 108.687,123.402 109.961 C 124.204 111.236,125.377 113.042,126.009 113.977 C 126.641 114.911,127.256 115.884,127.375 116.139 C 127.683 116.797,128.174 117.590,129.498 119.569 C 130.135 120.521,130.656 121.377,130.656 121.472 C 130.656 121.567,131.525 122.973,132.587 124.596 C 133.649 126.220,134.865 128.128,135.290 128.837 C 135.714 129.546,136.202 130.280,136.374 130.469 C 136.546 130.657,136.859 131.158,137.070 131.583 C 137.281 132.008,138.498 133.954,139.774 135.907 C 141.050 137.861,142.188 139.668,142.302 139.923 C 142.416 140.178,142.936 141.018,143.456 141.791 C 143.976 142.564,144.541 143.430,144.710 143.715 C 145.718 145.408,149.742 151.744,151.086 153.754 C 151.572 154.481,151.969 155.191,151.969 155.331 C 151.969 155.472,152.456 156.224,153.050 157.003 C 153.645 157.781,154.131 158.517,154.131 158.637 C 154.131 158.757,154.653 159.634,155.290 160.586 C 155.927 161.538,156.587 162.551,156.757 162.837 C 158.063 165.038,158.895 166.355,159.061 166.486 C 159.169 166.571,159.941 167.822,160.777 169.266 C 161.612 170.710,162.473 172.075,162.691 172.298 C 162.908 172.522,163.672 173.703,164.390 174.924 C 165.107 176.144,165.778 177.212,165.881 177.297 C 165.984 177.382,166.162 177.660,166.276 177.915 C 166.391 178.170,167.029 179.212,167.694 180.232 C 168.359 181.251,169.336 182.780,169.865 183.629 C 170.393 184.479,171.236 185.799,171.737 186.564 C 172.545 187.795,173.812 189.826,174.917 191.660 C 175.122 192.000,175.741 192.939,176.293 193.746 C 176.846 194.553,177.297 195.277,177.297 195.355 C 177.297 195.481,179.494 198.985,182.920 204.324 C 183.574 205.344,184.240 206.386,184.400 206.641 C 184.560 206.896,185.182 207.848,185.782 208.757 C 186.382 209.666,186.873 210.478,186.873 210.561 C 186.873 210.644,187.429 211.505,188.108 212.474 C 188.788 213.443,189.344 214.342,189.344 214.472 C 189.344 214.602,189.830 215.346,190.425 216.125 C 191.019 216.903,191.506 217.674,191.506 217.838 C 191.506 218.001,191.923 218.662,192.432 219.305 C 192.942 219.949,193.359 220.578,193.359 220.705 C 193.359 220.831,194.019 221.906,194.826 223.094 C 195.633 224.282,196.485 225.618,196.720 226.063 C 198.702 229.829,199.153 229.488,204.583 220.135 C 206.734 216.429,208.494 213.316,208.494 213.217 C 208.494 213.118,208.981 212.304,209.575 211.408 C 210.170 210.512,210.656 209.648,210.656 209.487 C 210.656 209.327,210.913 208.864,211.226 208.459 C 211.539 208.053,212.392 206.610,213.121 205.251 C 213.850 203.892,214.609 202.571,214.806 202.317 C 215.003 202.062,215.567 201.089,216.058 200.154 C 216.549 199.220,217.342 197.838,217.819 197.082 C 218.297 196.327,218.687 195.604,218.687 195.476 C 218.687 195.348,219.118 194.605,219.645 193.824 C 221.442 191.162,221.292 190.225,218.268 185.217 C 217.564 184.052,216.742 182.662,216.440 182.129 C 216.139 181.595,215.617 180.741,215.281 180.232 C 214.945 179.722,214.457 178.888,214.195 178.378 C 213.934 177.869,213.413 176.936,213.038 176.306 C 212.662 175.677,210.975 172.827,209.289 169.974 C 206.364 165.028,204.390 162.162,203.906 162.162 C 203.648 162.162,201.082 165.992,201.080 166.380 C 201.079 166.524,200.653 167.266,200.134 168.031 C 199.614 168.795,199.063 169.734,198.907 170.116 C 198.226 171.795,196.156 170.669,194.577 167.758 C 193.821 166.365,193.257 165.452,193.030 165.251 C 192.934 165.166,192.406 164.332,191.857 163.398 C 190.118 160.435,188.371 157.640,185.294 152.896 C 182.217 148.151,181.802 147.499,181.323 146.663 C 180.478 145.187,179.063 142.920,177.079 139.864 C 176.010 138.218,175.135 136.741,175.135 136.582 C 175.135 136.422,174.912 136.107,174.640 135.881 C 174.367 135.654,174.021 135.186,173.870 134.839 C 173.720 134.492,172.518 132.526,171.200 130.471 C 169.882 128.415,167.774 125.079,166.515 123.057 C 165.257 121.036,163.867 118.854,163.427 118.208 C 162.986 117.562,162.347 116.571,162.008 116.005 C 160.716 113.855,159.303 111.595,158.133 109.807 C 157.466 108.788,156.494 107.259,155.974 106.409 C 155.454 105.560,154.484 104.031,153.818 103.012 C 153.152 101.992,152.429 100.812,152.211 100.388 C 151.839 99.665,150.090 96.899,149.573 96.216 C 149.019 95.486,148.081 93.996,147.725 93.282 C 147.513 92.857,146.783 91.676,146.104 90.656 C 145.425 89.637,144.772 88.595,144.654 88.340 C 144.536 88.085,143.980 87.218,143.417 86.412 C 142.854 85.607,142.394 84.872,142.394 84.778 C 142.394 84.592,141.117 82.720,140.820 82.471 C 140.719 82.386,140.441 81.945,140.202 81.492 C 139.688 80.515,138.199 78.095,136.529 75.521 C 135.867 74.502,134.899 72.973,134.376 72.124 C 133.854 71.274,132.597 69.259,131.583 67.645 C 130.569 66.031,129.312 64.015,128.790 63.166 C 128.267 62.317,127.299 60.788,126.637 59.768 C 125.976 58.749,125.004 57.220,124.479 56.371 C 123.953 55.521,122.975 53.992,122.305 52.973 C 121.636 51.954,120.943 50.787,120.766 50.380 C 120.589 49.974,120.032 49.120,119.527 48.483 C 119.023 47.845,118.610 47.213,118.610 47.076 C 118.610 46.940,118.282 46.335,117.880 45.731 C 117.172 44.666,113.993 39.740,111.989 36.602 C 111.446 35.753,110.815 34.678,110.587 34.214 C 110.358 33.749,109.914 33.093,109.598 32.754 C 109.283 32.416,108.887 31.823,108.718 31.437 C 108.549 31.050,107.864 29.900,107.196 28.880 C 106.528 27.861,105.554 26.332,105.031 25.483 C 104.508 24.633,103.353 22.757,102.465 21.313 C 101.576 19.869,100.398 18.037,99.846 17.242 C 99.293 16.447,98.842 15.719,98.842 15.625 C 98.842 15.532,98.077 14.326,97.143 12.946 C 96.208 11.566,95.444 10.383,95.444 10.318 C 95.444 9.656,90.746 3.143,90.154 2.985 C 88.865 2.640,2.373 2.766,1.776 3.114 M86.653 163.935 C 86.222 164.401,85.869 164.885,85.869 165.012 C 85.869 165.139,85.104 166.346,84.170 167.695 C 83.236 169.044,82.471 170.297,82.471 170.479 C 82.471 170.662,82.335 170.811,82.168 170.811 C 82.001 170.811,81.779 171.153,81.674 171.570 C 81.570 171.988,81.281 172.498,81.033 172.704 C 80.785 172.910,80.380 173.506,80.133 174.029 C 79.885 174.553,78.992 176.023,78.148 177.297 C 77.303 178.571,75.880 180.766,74.986 182.175 C 74.091 183.583,72.843 185.529,72.211 186.499 C 71.580 187.469,70.961 188.471,70.837 188.726 C 70.712 188.981,69.873 190.272,68.973 191.595 C 68.073 192.918,67.336 194.058,67.336 194.128 C 67.336 194.198,66.904 194.895,66.375 195.678 C 65.847 196.461,65.068 197.754,64.645 198.551 C 64.221 199.348,63.785 200.069,63.675 200.154 C 63.394 200.371,62.085 202.259,62.085 202.447 C 62.085 202.532,61.320 203.724,60.386 205.097 C 59.452 206.469,58.687 207.780,58.687 208.010 C 58.687 208.240,58.514 208.498,58.301 208.584 C 58.089 208.670,57.574 209.414,57.158 210.239 C 56.741 211.063,56.213 211.946,55.985 212.201 C 55.177 213.102,50.967 219.774,50.966 220.154 C 50.966 220.367,50.831 220.541,50.666 220.541 C 50.501 220.541,49.984 221.321,49.517 222.275 C 49.050 223.229,48.490 224.078,48.272 224.161 C 48.055 224.245,47.876 224.443,47.876 224.601 C 47.876 224.760,46.942 226.308,45.800 228.043 C 43.884 230.954,43.226 232.021,42.333 233.668 C 42.149 234.008,41.757 234.640,41.463 235.072 C 41.168 235.504,40.510 236.515,40.000 237.319 C 39.490 238.122,38.553 239.495,37.917 240.370 C 37.280 241.245,36.469 242.562,36.113 243.297 C 35.757 244.032,35.340 244.633,35.185 244.633 C 35.030 244.633,34.903 244.809,34.903 245.023 C 34.903 245.238,34.035 246.736,32.973 248.353 C 31.911 249.969,30.417 252.303,29.653 253.538 C 27.685 256.719,26.140 259.135,23.724 262.814 C 22.568 264.574,21.622 266.076,21.622 266.151 C 21.622 266.226,21.017 267.219,20.278 268.356 C 19.539 269.494,18.754 270.772,18.533 271.197 C 18.312 271.622,18.048 272.039,17.946 272.124 C 17.650 272.370,16.371 274.244,16.371 274.431 C 16.371 274.524,15.884 275.293,15.290 276.139 C 14.695 276.985,14.208 277.761,14.208 277.864 C 14.208 277.967,13.444 279.212,12.510 280.631 C 11.575 282.050,10.811 283.346,10.811 283.510 C 10.811 283.675,10.707 283.856,10.579 283.912 C 10.294 284.039,6.486 289.684,6.486 289.980 C 6.486 290.098,5.757 291.319,4.865 292.693 C 3.973 294.068,2.757 295.998,2.162 296.983 C 1.568 297.967,0.838 299.031,0.541 299.348 C 0.097 299.820,0.000 300.502,0.000 303.166 L 0.000 306.409 44.185 306.409 C 92.128 306.409,89.631 306.499,90.427 304.751 C 90.622 304.323,91.853 302.332,93.163 300.326 C 94.472 298.320,95.852 296.193,96.229 295.598 C 96.606 295.004,97.591 293.475,98.417 292.201 C 99.243 290.927,100.058 289.651,100.229 289.365 C 100.401 289.079,101.372 287.620,102.388 286.122 C 103.404 284.624,104.377 283.173,104.550 282.899 C 104.723 282.624,105.918 280.817,107.205 278.883 C 108.492 276.949,110.091 274.490,110.757 273.417 C 111.424 272.345,112.401 270.886,112.928 270.174 C 113.455 269.462,113.986 268.568,114.107 268.185 C 114.228 267.803,114.437 267.490,114.572 267.490 C 114.706 267.490,115.175 266.798,115.614 265.952 C 116.053 265.106,116.561 264.238,116.743 264.022 C 117.374 263.275,118.610 261.284,118.610 261.016 C 118.610 260.868,118.724 260.700,118.863 260.644 C 119.062 260.563,124.713 252.228,126.178 249.855 C 126.347 249.580,126.884 248.744,127.370 247.998 C 127.857 247.252,128.752 245.876,129.361 244.942 C 129.970 244.008,130.957 242.479,131.556 241.544 C 132.155 240.610,132.850 239.596,133.100 239.292 C 134.422 237.686,134.389 236.723,132.940 234.562 C 132.193 233.449,131.583 232.464,131.583 232.372 C 131.583 232.281,131.097 231.544,130.502 230.734 C 129.907 229.924,129.421 229.126,129.421 228.961 C 129.421 228.795,128.934 228.023,128.340 227.244 C 127.745 226.466,127.259 225.746,127.259 225.645 C 127.259 225.452,124.711 221.566,123.204 219.459 C 122.717 218.780,122.095 217.772,121.820 217.220 C 121.545 216.668,121.196 216.216,121.046 216.216 C 120.895 216.216,120.772 216.083,120.772 215.921 C 120.772 215.605,119.921 214.257,118.092 211.677 C 117.005 210.145,116.448 209.858,116.448 210.832 C 116.448 211.079,116.170 211.518,115.830 211.809 C 115.490 212.100,115.212 212.496,115.212 212.688 C 115.212 212.881,114.753 213.649,114.192 214.396 C 113.631 215.142,112.762 216.429,112.262 217.256 C 111.761 218.083,111.212 218.986,111.042 219.264 C 110.873 219.541,110.178 220.573,109.498 221.557 C 108.819 222.541,107.985 223.817,107.645 224.394 C 107.305 224.971,106.205 226.668,105.200 228.166 C 104.196 229.663,103.142 231.236,102.859 231.660 C 102.576 232.085,101.834 233.161,101.211 234.051 C 100.587 234.941,100.077 235.788,100.077 235.934 C 100.077 236.079,99.799 236.449,99.459 236.757 C 99.120 237.064,98.842 237.435,98.842 237.580 C 98.842 237.725,98.355 238.536,97.761 239.382 C 97.166 240.228,96.680 241.004,96.680 241.106 C 96.680 241.208,96.141 242.078,95.484 243.040 C 93.704 245.641,89.439 252.154,89.301 252.481 C 89.198 252.724,87.258 255.620,85.285 258.475 C 83.005 261.774,79.382 267.439,79.382 267.707 C 79.382 267.886,79.164 268.214,78.896 268.436 C 78.629 268.658,78.153 269.335,77.839 269.941 C 77.525 270.547,77.050 271.320,76.783 271.660 C 76.517 272.000,75.768 273.112,75.120 274.131 C 74.471 275.151,73.532 276.595,73.032 277.341 C 72.532 278.086,71.985 278.926,71.815 279.206 C 71.645 279.486,71.181 280.126,70.783 280.630 L 70.060 281.544 58.840 281.544 C 52.668 281.544,47.516 281.441,47.390 281.316 C 47.182 281.107,48.910 277.429,49.387 277.066 C 49.624 276.885,50.589 275.421,51.265 274.216 C 51.525 273.753,52.293 272.571,52.973 271.590 C 54.353 269.599,54.427 269.483,55.815 267.147 C 56.358 266.231,57.019 265.211,57.282 264.879 C 57.545 264.547,57.761 264.170,57.761 264.040 C 57.761 263.910,58.351 262.955,59.073 261.919 C 60.937 259.244,63.938 254.498,63.938 254.225 C 63.938 254.099,64.216 253.744,64.556 253.436 C 64.896 253.129,65.174 252.738,65.174 252.568 C 65.174 252.398,66.112 250.856,67.259 249.141 C 68.405 247.426,69.483 245.792,69.653 245.509 C 69.822 245.226,70.414 244.235,70.967 243.306 C 71.520 242.377,72.181 241.444,72.434 241.234 C 72.688 241.023,72.905 240.625,72.916 240.348 C 72.928 240.072,73.550 239.012,74.299 237.992 C 75.049 236.973,76.088 235.444,76.610 234.595 C 77.131 233.745,78.108 232.216,78.781 231.197 C 79.453 230.178,80.176 228.992,80.388 228.563 C 80.599 228.133,81.414 226.813,82.199 225.628 C 82.984 224.444,84.026 222.862,84.516 222.113 C 85.005 221.364,85.647 220.391,85.943 219.951 C 86.238 219.511,86.652 218.803,86.863 218.378 C 87.074 217.954,87.349 217.531,87.474 217.440 C 87.599 217.348,88.052 216.615,88.480 215.810 C 88.908 215.004,89.401 214.176,89.576 213.968 C 90.225 213.195,91.429 211.237,91.429 210.952 C 91.429 210.789,91.533 210.656,91.660 210.656 C 91.788 210.656,92.297 209.995,92.793 209.189 C 93.289 208.382,94.366 206.719,95.187 205.493 C 96.008 204.267,96.680 203.130,96.680 202.967 C 96.680 202.803,96.858 202.486,97.076 202.261 C 97.294 202.037,97.872 201.158,98.359 200.309 C 98.847 199.459,99.642 198.258,100.125 197.639 C 100.608 197.020,101.004 196.445,101.004 196.361 C 101.004 196.276,101.768 195.052,102.703 193.640 C 104.909 190.306,104.858 189.657,102.080 185.637 C 101.552 184.873,101.019 184.039,100.895 183.784 C 100.401 182.765,99.809 181.837,99.538 181.657 C 99.380 181.553,98.848 180.772,98.355 179.923 C 97.862 179.073,97.040 177.735,96.529 176.949 C 96.017 176.163,94.973 174.500,94.208 173.255 C 93.444 172.009,92.298 170.220,91.661 169.279 C 91.024 168.338,90.503 167.446,90.503 167.298 C 90.502 167.003,87.769 163.089,87.564 163.089 C 87.495 163.089,87.085 163.470,86.653 163.935 " stroke="none" fill="#fff" fill-rule="evenodd"></path></g></svg>